<svg xmlns="http://www.w3.org/2000/svg" id="e-font-icon-svg-symbols" style="display: none;"><symbol id="eicon-menu-bar" viewBox="0 0 1000 1000"><path d="M104 333H896C929 333 958 304 958 271S929 208 896 208H104C71 208 42 237 42 271S71 333 104 333ZM104 583H896C929 583 958 554 958 521S929 458 896 458H104C71 458 42 487 42 521S71 583 104 583ZM104 833H896C929 833 958 804 958 771S929 708 896 708H104C71 708 42 737 42 771S71 833 104 833Z"></path></symbol><symbol id="eicon-close" viewBox="0 0 1000 1000"><path d="M742 167L500 408 258 167C246 154 233 150 217 150 196 150 179 158 167 167 154 179 150 196 150 212 150 229 154 242 171 254L408 500 167 742C138 771 138 800 167 829 196 858 225 858 254 829L496 587 738 829C750 842 767 846 783 846 800 846 817 842 829 829 842 817 846 804 846 783 846 767 842 750 829 737L588 500 833 258C863 229 863 200 833 171 804 137 775 137 742 167Z"></path></symbol><symbol id="fas-angle-down" viewBox="0 0 320 512"><path d="M143 352.3L7 216.3c-9.4-9.4-9.4-24.6 0-33.9l22.6-22.6c9.4-9.4 24.6-9.4 33.9 0l96.4 96.4 96.4-96.4c9.4-9.4 24.6-9.4 33.9 0l22.6 22.6c9.4 9.4 9.4 24.6 0 33.9l-136 136c-9.2 9.4-24.4 9.4-33.8 0z"></path></symbol><symbol id="fab-steam" viewBox="0 0 496 512"><path d="M496 256c0 137-111.2 248-248.4 248-113.8 0-209.6-76.3-239-180.4l95.2 39.3c6.4 32.1 34.9 56.4 68.9 56.4 39.2 0 71.9-32.4 70.2-73.5l84.5-60.2c52.1 1.3 95.8-40.9 95.8-93.5 0-51.6-42-93.5-93.7-93.5s-93.7 42-93.7 93.5v1.2L176.6 279c-15.5-.9-30.7 3.4-43.5 12.1L0 236.1C10.2 108.4 117.1 8 247.6 8 384.8 8 496 119 496 256zM155.7 384.3l-30.5-12.6a52.79 52.79 0 0 0 27.2 25.8c26.9 11.2 57.8-1.6 69-28.4 5.4-13 5.5-27.3.1-40.3-5.4-13-15.5-23.2-28.5-28.6-12.9-5.4-26.7-5.2-38.9-.6l31.5 13c19.8 8.2 29.2 30.9 20.9 50.7-8.3 19.9-31 29.2-50.8 21zm173.8-129.9c-34.4 0-62.4-28-62.4-62.3s28-62.3 62.4-62.3 62.4 28 62.4 62.3-27.9 62.3-62.4 62.3zm.1-15.6c25.9 0 46.9-21 46.9-46.8 0-25.9-21-46.8-46.9-46.8s-46.9 21-46.9 46.8c.1 25.8 21.1 46.8 46.9 46.8z"></path></symbol><symbol id="fas-chevron-down" viewBox="0 0 448 512"><path d="M207.029 381.476L12.686 187.132c-9.373-9.373-9.373-24.569 0-33.941l22.667-22.667c9.357-9.357 24.522-9.375 33.901-.04L224 284.505l154.745-154.021c9.379-9.335 24.544-9.317 33.901.04l22.667 22.667c9.373 9.373 9.373 24.569 0 33.941L240.971 381.476c-9.373 9.372-24.569 9.372-33.942 0z"></path></symbol><symbol id="eicon-play" viewBox="0 0 1000 1000"><path d="M838 162C746 71 633 25 500 25 371 25 258 71 163 162 71 254 25 367 25 500 25 633 71 746 163 837 254 929 367 979 500 979 633 979 746 933 838 837 929 746 975 633 975 500 975 367 929 254 838 162M808 192C892 279 933 379 933 500 933 621 892 725 808 808 725 892 621 938 500 938 379 938 279 896 196 808 113 725 67 621 67 500 67 379 108 279 196 192 279 108 383 62 500 62 621 62 721 108 808 192M438 392V642L642 517 438 392Z"></path></symbol><symbol id="fas-angle-up" viewBox="0 0 320 512"><path d="M177 159.7l136 136c9.4 9.4 9.4 24.6 0 33.9l-22.6 22.6c-9.4 9.4-24.6 9.4-33.9 0L160 255.9l-96.4 96.4c-9.4 9.4-24.6 9.4-33.9 0L7 329.7c-9.4-9.4-9.4-24.6 0-33.9l136-136c9.4-9.5 24.6-9.5 34-.1z"></path></symbol></svg>